<svg id="Layer_1" data-name="Layer 1" xmlns="http://www.w3.org/2000/svg" viewBox="0 0 90 90"><defs><style>.cls-1{fill:#4d4d4d;}.cls-2{fill:#e6e6e6;}</style></defs><title>marko-border-2</title><path class="cls-1" d="M611,436a5,5,0,0,1,5,5v50a5,5,0,0,1-5,5H561a5,5,0,0,1-5-5V441a5,5,0,0,1,5-5h50m0-15H561a20,20,0,0,0-20,20v50a20,20,0,0,0,20,20h50a20,20,0,0,0,20-20V441a20,20,0,0,0-20-20Z" transform="translate(-541 -421)"/><rect class="cls-2" x="20" width="50" height="15"/><rect class="cls-2" x="75" y="20" width="15" height="50"/><rect class="cls-2" x="20" y="75" width="50" height="15"/><rect class="cls-2" y="20" width="15" height="50"/></svg>